<?xml version="1.0" encoding="utf-8"?>
<!-- Svg Vector Icons : http://www.onlinewebfonts.com/icon -->
<!DOCTYPE svg PUBLIC "-//W3C//DTD SVG 1.1//EN" "http://www.w3.org/Graphics/SVG/1.1/DTD/svg11.dtd">
<svg version="1.1" xmlns="http://www.w3.org/2000/svg" xmlns:xlink="http://www.w3.org/1999/xlink" x="0px" y="0px" viewBox="0 0 1000 1000" enable-background="new 0 0 1000 1000" xml:space="preserve">
<metadata> Svg Vector Icons : http://www.onlinewebfonts.com/icon </metadata>
<g><g transform="translate(0.000000,512.000000) scale(0.100000,-0.100000)"><path d="M4529.9,5008.4c-1154.7-118.9-2188.5-608-2999.9-1419.4C751.3,2810.3,287.1,1864.7,124.1,723.5C87.7,462.6,93.4-277.8,135.6-552c84.4-556.2,228.3-1018.5,464.2-1496.1c257-517.9,542.8-914.9,951.4-1317.7c402.8-400.9,774.9-663.6,1290.9-918.7c487.2-237.8,884.2-364.4,1432.8-452.7c308.8-49.9,1043.4-59.5,1329.2-19.2c941.8,136.2,1781.9,492.9,2474.3,1053c987.8,797.9,1611.2,1916.1,1797.2,3218.5c32.6,226.3,32.6,982,0,1208.4C9714.4,1859,9246.4,2812.2,8469.6,3589.1C7710,4348.6,6781.7,4812.8,5690.3,4981.6C5448.6,5018,4775.4,5035.3,4529.9,5008.4z M7123.1,3341.6c443.1-113.2,842-464.2,1020.4-891.9c118.9-285.8,155.4-669.4,88.2-939.8c-17.3-72.9-74.8-222.5-124.7-328c-149.6-310.7-423.9-575.4-740.4-719.3c-274.3-124.7-657.9-166.9-949.4-105.5c-596.5,126.6-1081.8,631-1187.3,1233.3c-34.5,191.8-15.3,533.2,38.4,705.8c182.2,581.2,661.7,993.6,1256.3,1083.7C6678.1,3403,6950.5,3383.8,7123.1,3341.6z M4965.3,1928c19.2-17.3,34.5-49.9,34.5-72.9c0-90.2-30.7-95.9-573.5-105.5l-512.1-9.6l-124.7-61.4c-153.4-74.8-287.7-212.9-358.7-366.3c-49.9-103.6-51.8-124.7-57.5-471.8l-7.7-364.4l78.6,71c44.1,38.4,94,71,111.3,71c46,0,101.7-57.5,101.7-103.6c0-51.8-339.5-395.1-393.2-395.1c-48,0-393.2,341.4-393.2,387.5c0,42.2,65.2,111.2,105.5,111.2c15.3,0,63.3-30.7,105.5-69.1l76.7-69.1v306.9c0,170.7,9.6,354.8,21.1,410.5c72.9,349.1,366.4,652.1,713.5,736.5c65.2,15.3,264.7,24.9,567.7,24.9C4871.3,1960.6,4934.6,1956.8,4965.3,1928z M6950.5-57.2c97.8-97.8,178.4-193.7,178.4-211c0-42.2-65.2-111.2-105.5-111.2c-15.3,0-63.3,30.7-105.5,69l-76.7,69.1v-306.9c0-170.7-9.6-354.8-21.1-410.5c-74.8-358.7-383.6-667.5-742.3-742.3c-57.5-11.5-297.3-21.1-554.3-21.1c-395.1,0-458.4,3.8-489.1,32.6c-19.2,17.3-34.5,49.9-34.5,72.9c0,90.2,30.7,95.9,573.5,105.5l512.1,9.6l124.7,61.4c153.4,74.8,287.7,212.9,358.7,366.3c49.9,103.6,51.8,124.7,57.5,471.8l7.7,364.4l-78.7-71c-44.1-38.4-90.1-71-103.6-71c-44.1,0-109.3,59.5-109.3,101.7c0,53.7,339.5,397,393.2,397C6756.7,119.3,6845,46.4,6950.5-57.2z M3685.9-149.2c189.9-59.5,404.7-174.6,550.5-297.3c496.8-408.5,688.6-1147,450.7-1735.8c-82.5-201.4-170.7-329.9-358.7-519.8c-161.1-161.1-205.2-193.7-383.6-280c-262.8-128.5-429.6-166.9-700.1-164.9c-255.1,1.9-450.7,47.9-671.3,159.2c-393.2,197.6-686.7,560.1-797.9,987.8c-51.8,195.6-55.6,533.2-11.5,723.1c143.9,594.6,604.2,1039.6,1204.6,1166.2C3120.1-80.2,3534.4-101.3,3685.9-149.2z"/><path d="M6467.1,3161.3c-268.5-63.3-489.1-182.2-671.3-364.4c-280-280-425.8-698.2-376-1083.7c42.2-333.7,149.6-554.3,385.5-790.2c262.8-264.7,558.1-387.4,930.3-387.4c232.1,0,383.6,34.5,604.2,143.9c130.4,63.3,195.6,111.2,328,243.6c182.2,182.2,257,301.1,335.7,529.4c47.9,136.2,53.7,180.3,53.7,402.8c0,218.7-5.8,268.5-51.8,402.8c-71,214.8-172.6,379.8-331.8,537.1c-251.3,249.4-533.2,372.1-890,385.5C6653.2,3184.3,6541.9,3178.6,6467.1,3161.3z M7243.9,2468.9v-105.5h-180.3h-182.2l42.2-95.9l42.2-95.9h140h138.1v-105.5v-105.5h-140h-142l-23-78.6c-32.6-105.5-182.2-255.1-287.7-287.7c-42.2-13.4-78.6-30.7-78.6-38.4s107.4-117,239.8-241.7l239.8-228.2l-74.8-72.9l-74.8-72.9L6586.1,1249c-172.6,170.7-324.2,308.8-337.6,308.8c-13.4,0-21.1,36.4-21.1,94v92.1l159.2,9.6c90.2,5.8,186.1,24.9,218.7,42.2c59.5,28.8,140,115.1,140,147.7c0,9.6-117,17.3-258.9,17.3h-258.9v105.5v105.5h258.9c141.9,0,258.9,7.7,258.9,17.3c0,34.5-86.3,122.8-145.8,147.7c-36.4,15.3-130.4,26.9-218.7,26.9h-153.4v105.5v105.5h508.3h508.3V2468.9z"/><path d="M3060.6-302.7c-498.7-78.7-911.1-431.6-1064.5-911.1c-105.5-331.8-78.6-675.2,82.5-1005.1c71-149.6,113.2-209.1,243.6-339.5c130.4-130.4,189.9-172.6,339.5-243.6c235.9-115.1,441.2-157.3,682.8-142c571.6,38.4,1062.6,450.8,1208.4,1010.8c42.2,163,42.2,468,0,633c-99.7,385.5-393.2,734.6-751.9,891.9C3582.4-310.4,3279.3-268.2,3060.6-302.7z M3338.8-747.7c17.3-23,30.7-67.1,30.7-94c0-44.1,11.5-57.5,69.1-74.8c147.7-49.9,276.2-216.7,276.2-360.6c0-86.3-26.9-118.9-97.8-118.9c-61.4,0-84.4,26.8-101.7,117c-19.2,109.3-126.6,189.9-251.3,189.9c-188,0-312.6-161.1-232.1-303c36.4-65.2,126.6-118.9,205.2-118.9c182.2,0,375.9-113.2,441.2-257c95.9-212.9-15.4-469.9-239.8-550.5c-51.8-19.2-69.1-36.4-69.1-67.1c0-122.7-82.5-186-166.9-130.4c-32.6,21.1-44.1,46-44.1,101.7c0,67.1-5.8,76.7-55.6,88.2c-188,40.3-362.5,316.5-282,441.2c53.7,82.5,184.1,46,184.1-49.9c0-63.3,55.6-149.6,115.1-180.3c30.7-15.3,99.7-28.8,151.5-28.8c80.6,0,107.4,9.6,163,57.5c80.6,71,97.8,132.3,61.4,220.6c-34.5,80.6-132.3,143.9-222.5,143.9c-232.1,0-431.6,157.3-469.9,366.3c-28.8,161.1,72.9,335.7,241.7,414.3c95.9,46,111.2,61.4,111.2,107.4c1.9,30.7,11.5,71,21.1,92.1C3206.4-690.1,3300.4-694,3338.8-747.7z"/></g></g>
</svg>